<?xml version="1.0" encoding="utf-8"?>
<!-- Generator: Adobe Illustrator 15.0.0, SVG Export Plug-In . SVG Version: 6.00 Build 0)  -->
<!DOCTYPE svg PUBLIC "-//W3C//DTD SVG 1.1//EN" "http://www.w3.org/Graphics/SVG/1.1/DTD/svg11.dtd">
<svg version="1.1" id="Layer_1" xmlns="http://www.w3.org/2000/svg" xmlns:xlink="http://www.w3.org/1999/xlink" x="0px" y="0px"
	 width="144px" height="144px" viewBox="54 0 144 144" enable-background="new 54 0 144 144" xml:space="preserve">
<path fill="#C9C9C9" d="M171.538,34.382c0.001,4.601-3.729,8.332-8.33,8.333c-4.601,0.001-8.332-3.729-8.333-8.33
	c-0.001-4.602,3.729-8.333,8.33-8.333c0.001,0,0.002,0,0.003,0C167.809,26.053,171.537,29.782,171.538,34.382z M198,72l-0.001,0.105
	l-0.474,30.208c-0.256,22.654-18.558,40.956-41.211,41.212L126,144l-0.105-0.002l-30.208-0.471
	c-22.654-0.256-40.957-18.559-41.214-41.213L54,72l0.002-0.104l0.472-30.209c0.258-22.654,18.56-40.955,41.214-41.211L126,0
	l0.105,0.002l30.208,0.472c22.654,0.256,40.955,18.558,41.212,41.211L198,72z M184.591,72l-0.472-30.103
	c-0.174-15.4-12.615-27.842-28.016-28.017L126,13.41l-30.103,0.47c-15.4,0.174-27.842,12.616-28.017,28.017L67.41,72l0.47,30.104
	c0.174,15.4,12.616,27.842,28.017,28.017L126,130.59l30.104-0.47c15.4-0.174,27.843-12.616,28.016-28.017L184.591,72z M162.975,72
	c0,20.42-16.555,36.975-36.975,36.975S89.025,92.42,89.025,72S105.579,35.026,126,35.026c0,0,0,0,0,0
	C146.41,35.049,162.951,51.589,162.975,72z M149.566,72c0-13.015-10.552-23.566-23.567-23.566S102.434,58.985,102.434,72
	c0,13.016,10.551,23.566,23.566,23.566c0,0,0,0,0,0C139.009,95.551,149.551,85.009,149.566,72L149.566,72z"/>
</svg>
