<svg viewBox="0 0 420 419.997" xmlns="http://www.w3.org/2000/svg"><path d="m388.818 146.28a24.3 24.3 0 1 1 -24.295-24.295 24.3 24.3 0 0 1 24.295 24.295zm77.182 109.72-.005.306-1.38 88.105a121.58 121.58 0 0 1 -120.2 120.2l-88.415 1.389-.306-.006-88.105-1.376a121.586 121.586 0 0 1 -120.206-120.2l-1.383-88.418.006-.306 1.376-88.108a121.59 121.59 0 0 1 120.206-120.2l88.412-1.386.306.006 88.105 1.376a121.584 121.584 0 0 1 120.2 120.2zm-39.112 0-1.374-87.8a82.654 82.654 0 0 0 -81.714-81.715l-87.8-1.371-87.8 1.371a82.658 82.658 0 0 0 -81.716 81.715l-1.371 87.8 1.371 87.8a82.655 82.655 0 0 0 81.716 81.715l87.8 1.371 87.8-1.371a82.651 82.651 0 0 0 81.714-81.715zm-63.048 0a107.841 107.841 0 1 1 -107.84-107.841 107.962 107.962 0 0 1 107.84 107.841zm-39.107 0a68.734 68.734 0 1 0 -68.733 68.734 68.812 68.812 0 0 0 68.732-68.734z" transform="translate(-46 -46.001)"/></svg>